<svg xmlns="http://www.w3.org/2000/svg" viewBox="0 0 640 500"><defs><linearGradient id="g" x1="0" x2="1" y1="0" y2="1"><stop stop-color="#172a46"/><stop offset="1" stop-color="#315f9d"/></linearGradient><filter id="s"><feDropShadow dy="16" stdDeviation="16" flood-color="#172a46" flood-opacity=".14"/></filter></defs><ellipse cx="318" cy="447" rx="230" ry="25" fill="#172a46" opacity=".08"/><rect x="91" y="88" width="458" height="326" rx="28" fill="#fff" filter="url(#s)"/><rect x="119" y="120" width="402" height="124" rx="20" fill="url(#g)"/><text x="145" y="152" font-family="Arial" font-size="11" fill="#c4d0de">BUSINESS ACCOUNT READINESS</text><text x="145" y="188" font-family="Arial" font-size="25" font-weight="700" fill="#fff">Documents organized</text><text x="145" y="215" font-family="Arial" font-size="11" fill="#c4d0de">Formation records • EIN • Ownership</text><circle cx="466" cy="182" r="36" fill="#d7a548"/><path d="M443 195h46M451 195v-31l15-10 15 10v31M446 163h40" fill="none" stroke="#172a46" stroke-width="4" stroke-linecap="round" stroke-linejoin="round"/><rect x="119" y="270" width="190" height="112" rx="16" fill="#f2f6fa"/><text x="143" y="297" font-family="Arial" font-size="10" fill="#728296">CHECKLIST</text><g font-family="Arial" font-size="10" fill="#172a46"><circle cx="148" cy="323" r="8" fill="#1f8f64"/><path d="m144 323 3 3 5-6" stroke="#fff" fill="none" stroke-width="2"/><text x="163" y="327">Formation certificate</text><circle cx="148" cy="351" r="8" fill="#1f8f64"/><path d="m144 351 3 3 5-6" stroke="#fff" fill="none" stroke-width="2"/><text x="163" y="355">Ownership details</text></g><rect x="329" y="270" width="192" height="112" rx="16" fill="#fff" stroke="#e2e8ef"/><text x="353" y="299" font-family="Arial" font-size="10" fill="#728296">NEXT MILESTONE</text><text x="353" y="327" font-family="Arial" font-size="15" font-weight="700" fill="#172a46">Verify tax ID</text><rect x="353" y="347" width="132" height="10" rx="5" fill="#dbe5f1"/><rect x="353" y="347" width="86" height="10" rx="5" fill="#315f9d"/></svg>
