<svg xmlns="http://www.w3.org/2000/svg" viewBox="0 0 640 500"><defs><linearGradient id="g" x1="0" x2="1" y1="0" y2="1"><stop stop-color="#315f9d"/><stop offset="1" stop-color="#172a46"/></linearGradient><filter id="s"><feDropShadow dy="18" stdDeviation="18" flood-color="#172a46" flood-opacity=".14"/></filter></defs><ellipse cx="320" cy="450" rx="225" ry="25" fill="#172a46" opacity=".08"/><rect x="112" y="62" width="416" height="374" rx="28" fill="#fff" filter="url(#s)"/><rect x="146" y="96" width="348" height="68" rx="16" fill="url(#g)"/><circle cx="176" cy="130" r="15" fill="#d7a548"/><path d="m168 130 6 6 11-13" fill="none" stroke="#172a46" stroke-width="3.5" stroke-linecap="round" stroke-linejoin="round"/><text x="203" y="126" font-family="Arial" font-size="14" font-weight="700" fill="#fff">Compliance workspace</text><text x="203" y="144" font-family="Arial" font-size="9" fill="#c9d5e2">4 of 6 items complete</text><text x="146" y="201" font-family="Arial" font-size="13" font-weight="700" fill="#172a46">Requirements checklist</text><g font-family="Arial" font-size="11"><rect x="146" y="222" width="348" height="48" rx="12" fill="#f2f6fa"/><circle cx="171" cy="246" r="10" fill="#1f8f64"/><path d="m166 246 4 4 7-8" fill="none" stroke="#fff" stroke-width="2.5"/><text x="192" y="250" fill="#172a46">Business information reviewed</text><rect x="146" y="282" width="348" height="48" rx="12" fill="#f2f6fa"/><circle cx="171" cy="306" r="10" fill="#1f8f64"/><path d="m166 306 4 4 7-8" fill="none" stroke="#fff" stroke-width="2.5"/><text x="192" y="310" fill="#172a46">Owner details confirmed</text><rect x="146" y="342" width="348" height="48" rx="12" fill="#fff" stroke="#dfe6ee"/><circle cx="171" cy="366" r="10" fill="#fff" stroke="#aebdcd"/><text x="192" y="370" fill="#172a46">Review filing deadline</text></g><circle cx="481" cy="368" r="5" fill="#d7a548"/></svg>
