<svg xmlns="http://www.w3.org/2000/svg" viewBox="0 0 760 520">
<defs><linearGradient id="a" x1="0" y1="0" x2="1" y2="1"><stop stop-color="#172a46"/><stop offset="1" stop-color="#315f9d"/></linearGradient><filter id="b"><feDropShadow dy="16" stdDeviation="16" flood-color="#172a46" flood-opacity=".15"/></filter></defs>
<ellipse cx="370" cy="480" rx="280" ry="24" fill="#172a46" opacity=".08"/>
<rect x="64" y="45" width="635" height="404" rx="26" fill="#fff" filter="url(#b)"/>
<rect x="64" y="45" width="150" height="404" rx="26" fill="#0f2038"/><rect x="190" y="45" width="24" height="404" fill="#0f2038"/>
<rect x="88" y="76" width="38" height="38" rx="10" fill="#fff"/><text x="107" y="100" text-anchor="middle" font-family="Arial" font-size="10" font-weight="800" fill="#172a46">ABF</text><rect x="136" y="81" width="50" height="8" rx="4" fill="#fff"/><rect x="136" y="96" width="36" height="6" rx="3" fill="#7f93aa"/>
<g fill="#8fa3b8"><rect x="88" y="150" width="85" height="8" rx="4"/><rect x="88" y="188" width="72" height="8" rx="4"/><rect x="88" y="226" width="88" height="8" rx="4"/><rect x="88" y="264" width="67" height="8" rx="4"/><rect x="88" y="302" width="78" height="8" rx="4"/></g><rect x="76" y="132" width="126" height="36" rx="9" fill="#1d3858"/><circle cx="93" cy="150" r="7" fill="#d7a548"/><rect x="108" y="146" width="56" height="8" rx="4" fill="#fff"/>
<text x="245" y="82" font-family="Arial" font-size="11" fill="#8290a0">CLIENT DASHBOARD</text><text x="245" y="108" font-family="Arial" font-size="22" font-weight="700" fill="#172a46">Good morning, Founder.</text>
<rect x="245" y="133" width="415" height="102" rx="16" fill="url(#a)"/><text x="267" y="158" font-family="Arial" font-size="10" fill="#c3cfdd">FORMATION IN PROGRESS</text><text x="267" y="187" font-family="Arial" font-size="20" font-weight="700" fill="#fff">North Ridge Consulting</text><text x="267" y="207" font-family="Arial" font-size="10" fill="#c3cfdd">LLC • Wyoming • Professional Services</text><circle cx="603" cy="184" r="28" fill="none" stroke="#fff" stroke-opacity=".2" stroke-width="7"/><path d="M603 156a28 28 0 0 1 25 40" fill="none" stroke="#d7a548" stroke-width="7" stroke-linecap="round"/><text x="603" y="188" text-anchor="middle" font-family="Arial" font-size="12" font-weight="700" fill="#fff">62%</text>
<rect x="245" y="254" width="258" height="160" rx="16" fill="#fff" stroke="#e0e6ed"/><text x="265" y="281" font-family="Arial" font-size="14" font-weight="700" fill="#172a46">Formation checklist</text>
<g font-family="Arial" font-size="10" fill="#526277"><circle cx="270" cy="311" r="8" fill="#1f8f64"/><path d="m266 311 3 3 5-6" fill="none" stroke="#fff" stroke-width="2"/><text x="286" y="315">Owner details completed</text><circle cx="270" cy="344" r="8" fill="#fff" stroke="#bac6d4"/><text x="286" y="348">Confirm registered agent</text><circle cx="270" cy="377" r="8" fill="#fff" stroke="#bac6d4"/><text x="286" y="381">Review mailing address</text></g>
<rect x="521" y="254" width="139" height="160" rx="16" fill="#eff4fa"/><circle cx="550" cy="287" r="15" fill="#172a46"/><path d="M550 278v18M541 287h18" stroke="#d7a548" stroke-width="3" stroke-linecap="round"/><text x="541" y="320" font-family="Arial" font-size="10" fill="#315f9d" font-weight="700">ABF GUIDE</text><text x="541" y="343" font-family="Arial" font-size="13" fill="#172a46" font-weight="700">Your next step</text><text x="541" y="365" font-family="Arial" font-size="9" fill="#67778a">Review your agent</text><text x="541" y="378" font-family="Arial" font-size="9" fill="#67778a">and address details.</text><rect x="541" y="390" width="92" height="10" rx="5" fill="#315f9d" opacity=".18"/>
</svg>
