<svg xmlns="http://www.w3.org/2000/svg" viewBox="0 0 620 500"><defs><linearGradient id="g" x1="0" x2="1" y1="0" y2="1"><stop stop-color="#315f9d"/><stop offset="1" stop-color="#172a46"/></linearGradient><filter id="s"><feDropShadow dy="18" stdDeviation="18" flood-color="#172a46" flood-opacity=".14"/></filter></defs><ellipse cx="310" cy="451" rx="220" ry="25" fill="#172a46" opacity=".08"/><rect x="110" y="80" width="400" height="330" rx="28" fill="#fff" filter="url(#s)"/><rect x="110" y="80" width="400" height="58" rx="28" fill="url(#g)"/><rect x="110" y="112" width="400" height="26" fill="url(#g)"/><text x="145" y="116" font-family="Arial" font-size="16" font-weight="700" fill="#fff">Registered Agent Center</text><rect x="142" y="166" width="180" height="210" rx="18" fill="#f3f6fa"/><path d="M232 194 277 212v35c0 39-18 67-45 82-27-15-45-43-45-82v-35l45-18Z" fill="#d7a548"/><path d="m213 254 13 13 27-33" fill="none" stroke="#172a46" stroke-width="8" stroke-linecap="round" stroke-linejoin="round"/><text x="232" y="352" text-anchor="middle" font-family="Arial" font-size="12" font-weight="700" fill="#172a46">ACTIVE COVERAGE</text><rect x="344" y="166" width="134" height="64" rx="12" fill="#eef3f9"/><circle cx="365" cy="198" r="11" fill="#315f9d"/><path d="M360 198h10M365 193v10" stroke="#fff" stroke-width="2"/><text x="384" y="194" font-family="Arial" font-size="11" font-weight="700" fill="#172a46">New notice</text><text x="384" y="210" font-family="Arial" font-size="9" fill="#728296">Uploaded today</text><rect x="344" y="247" width="134" height="64" rx="12" fill="#fff" stroke="#e1e7ee"/><circle cx="365" cy="279" r="11" fill="#e4f3ed"/><path d="m359 279 4 4 8-9" fill="none" stroke="#1f8f64" stroke-width="2.5"/><text x="384" y="275" font-family="Arial" font-size="11" font-weight="700" fill="#172a46">Compliant</text><text x="384" y="291" font-family="Arial" font-size="9" fill="#728296">No action due</text><rect x="344" y="328" width="134" height="48" rx="12" fill="#172a46"/><text x="411" y="357" text-anchor="middle" font-family="Arial" font-size="11" font-weight="700" fill="#fff">View documents</text></svg>
